<svg width="69" height="70" viewBox="0 0 69 70" fill="none" xmlns="http://www.w3.org/2000/svg">
<g filter="url(#filter0_d)">
<ellipse cx="34.4526" cy="33.6236" rx="32.3175" ry="33.0619" fill="white"/>
</g>
<path d="M50.8985 19.0628H47.3269V16.1737C47.3269 15.2356 46.5827 14.4742 45.6657 14.4742H23.2395C22.3226 14.4742 21.5783 15.2356 21.5783 16.1737V19.0628H18.0068C17.0898 19.0628 16.3456 19.8241 16.3456 20.7622V23.8213C16.3456 27.5091 18.7942 30.5647 22.1897 31.3907C22.9804 34.069 24.5286 36.4924 26.7546 38.1987C28.5055 39.5447 30.5953 40.3842 32.7914 40.6765V48.1371C28.655 48.2289 25.316 51.6822 25.316 55.9377C25.316 56.8758 26.0603 57.6371 26.9772 57.6371H41.928C42.845 57.6371 43.5892 56.8758 43.5892 55.9377C43.5892 51.6822 40.2502 48.2289 36.1138 48.1371V40.6799C38.29 40.3876 40.3931 39.5515 42.1506 38.2021C44.3766 36.4958 45.9248 34.0724 46.7156 31.3941C50.1144 30.5681 52.5597 27.5125 52.5597 23.8213V20.7622C52.5597 19.8241 51.8188 19.0628 50.8985 19.0628ZM19.668 23.8213V22.4617H21.5783V27.4139C20.4421 26.622 19.668 25.3406 19.668 23.8213ZM39.9346 54.2416H28.9707C29.6219 52.6441 31.1634 51.5225 32.9575 51.5225H35.9477C37.7418 51.5225 39.2834 52.6441 39.9346 54.2416ZM44.0045 27.6145C44.0045 30.6939 42.5659 33.634 40.1605 35.4796C36.9544 37.9472 32.0572 38.0254 28.7447 35.4796C26.3393 33.634 24.9007 30.6939 24.9007 27.6145V17.8732H44.0045V27.6145ZM49.2373 23.8213C49.2373 25.3372 48.4631 26.6186 47.3269 27.4105V22.4617H49.2373V23.8213Z" fill="#00003D"/>
<defs>
<filter id="filter0_d" x="0.596946" y="0.561646" width="67.7113" height="69.2001" filterUnits="userSpaceOnUse" color-interpolation-filters="sRGB">
<feFlood flood-opacity="0" result="BackgroundImageFix"/>
<feColorMatrix in="SourceAlpha" type="matrix" values="0 0 0 0 0 0 0 0 0 0 0 0 0 0 0 0 0 0 127 0"/>
<feOffset dy="1.53812"/>
<feGaussianBlur stdDeviation="0.769062"/>
<feColorMatrix type="matrix" values="0 0 0 0 0 0 0 0 0 0 0 0 0 0 0 0 0 0 0.25 0"/>
<feBlend mode="normal" in2="BackgroundImageFix" result="effect1_dropShadow"/>
<feBlend mode="normal" in="SourceGraphic" in2="effect1_dropShadow" result="shape"/>
</filter>
</defs>
</svg>
